<?xml version="1.0" encoding="UTF-8" standalone="no"?>
<!DOCTYPE svg PUBLIC "-//W3C//DTD SVG 1.1//EN" "http://www.w3.org/Graphics/SVG/1.1/DTD/svg11.dtd">
<svg width="100%" height="100%" viewBox="0 0 95 77" version="1.1" xmlns="http://www.w3.org/2000/svg" xmlns:xlink="http://www.w3.org/1999/xlink" xml:space="preserve" xmlns:serif="http://www.serif.com/" style="fill-rule:evenodd;clip-rule:evenodd;stroke-linejoin:round;stroke-miterlimit:2;">
    <g transform="matrix(1,0,0,1,-2.5,-11.7069)">
        <path d="M30.6,69.4C24.2,63 21.6,54.1 22.9,45.7L32.5,48.9L25.4,20L2.5,39L12.5,42.3C10,54.5 13.5,67.7 22.9,77.1C34.2,88.4 50.8,91.1 64.6,85.4L62,74.7C51.8,79.7 39.1,77.9 30.6,69.4Z" style="fill-rule:nonzero;"/>
        <path d="M87.5,57.7C90,45.5 86.5,32.3 77.1,22.9C65.8,11.6 49.2,8.9 35.4,14.6L38,25.3C48.2,20.3 60.9,22.1 69.4,30.6C75.8,37 78.4,45.9 77.1,54.3L67.5,51.1L74.6,80L97.5,61L87.5,57.7Z" style="fill-rule:nonzero;"/>
    </g>
</svg>
