<?xml version="1.0" encoding="UTF-8" standalone="no"?>
<!DOCTYPE svg PUBLIC "-//W3C//DTD SVG 1.1//EN" "http://www.w3.org/Graphics/SVG/1.1/DTD/svg11.dtd">
<svg width="100%" height="100%" viewBox="0 0 57 57" version="1.1" xmlns="http://www.w3.org/2000/svg" xmlns:xlink="http://www.w3.org/1999/xlink" xml:space="preserve" xmlns:serif="http://www.serif.com/" style="fill-rule:evenodd;clip-rule:evenodd;stroke-linejoin:round;stroke-miterlimit:2;">
    <g transform="matrix(1,0,0,1,0.0015,0.001)">
        <path d="M27.675,17.863L20.437,17.863L20.437,10.624C20.437,9.914 19.863,9.339 19.154,9.34C18.445,9.34 17.869,9.914 17.87,10.624L17.87,17.863L10.63,17.863C9.921,17.863 9.345,18.438 9.345,19.148C9.345,19.856 9.92,20.433 10.629,20.432L17.868,20.433L17.868,27.67C17.87,28.379 18.445,28.953 19.153,28.955C19.863,28.955 20.438,28.379 20.438,27.67L20.438,20.43L27.676,20.431C28.384,20.432 28.959,19.856 28.958,19.147C28.958,18.436 28.384,17.863 27.675,17.863Z" style="fill-rule:nonzero;"/>
        <path d="M55.673,50.926L34.889,29.996C40.039,22.538 39.302,12.244 32.664,5.603C25.19,-1.869 13.079,-1.869 5.604,5.603C-1.87,13.079 -1.87,25.191 5.604,32.665C12.244,39.302 22.537,40.04 29.995,34.887L50.782,55.818C52.133,57.17 54.324,57.172 55.673,55.818C57.024,54.469 57.024,52.278 55.673,50.926ZM28.995,28.999C23.541,34.435 14.727,34.435 9.271,28.999C3.837,23.543 3.837,14.73 9.272,9.275C14.727,3.84 23.54,3.84 28.993,9.275C34.432,14.73 34.432,23.543 28.995,28.999Z" style="fill-rule:nonzero;"/>
    </g>
</svg>
